<?xml version="1.0" encoding="utf-8"?>
<!-- Generator: Adobe Illustrator 21.1.0, SVG Export Plug-In . SVG Version: 6.00 Build 0)  -->
<svg version="1.1" id="Blue_title" xmlns="http://www.w3.org/2000/svg" xmlns:xlink="http://www.w3.org/1999/xlink" x="0px" y="0px"
	 viewBox="0 0 556.5 224" enable-background="new 0 0 556.5 224" xml:space="preserve">
<g>
	<g>
		<g>
			<path fill="#FBC878" stroke="#008CCE" stroke-width="4" stroke-linecap="round" stroke-linejoin="round" d="M426.2,133.7
				c4.6,3.2,7.5,7.6,9.1,10.8c0.1,0.3,0.3,0.5,0.4,0.8c0.9,2,1.3,3.3,1.3,3.3l-0.1,0c1.6,5,2.7,11.2,2.7,12.5l6.6,48.3h0.6
				c2.1,0,3.8,1.6,3.8,3.5c0,1.9-1.7,3.5-3.8,3.5h-68.3c-2.1,0-3.8-1.6-3.8-3.5c0-1.9,1.7-3.5,3.8-3.5h0.6l6.6-48.3
				c0-1.3,1-7.5,2.7-12.5l-0.1,0c0,0,0.4-1.3,1.3-3.3c0.1-0.3,0.3-0.6,0.4-0.8c1.6-3.2,4.5-7.6,9.1-10.8
				C399,133.7,412,126.7,426.2,133.7z"/>
			<path fill="none" stroke="#008CCE" stroke-width="4.2404" stroke-linecap="round" stroke-linejoin="round" d="M399,133.7
				c-4.6,3.2-7.5,7.6-9.1,10.8c-0.1,0.3-0.3,0.5-0.4,0.8c-0.9,2-1.3,3.3-1.3,3.3l0.1,0c-1.6,5-2.7,11.2-2.7,12.5l-6.6,48.3h-0.6
				c-2.1,0-3.8,1.6-3.8,3.5c0,1.9,1.7,3.5,3.8,3.5h68.3c2.1,0,3.8-1.6,3.8-3.5c0-1.9-1.7-3.5-3.8-3.5h-0.6l-6.6-48.3
				c0-1.3-1-7.5-2.7-12.5l0.1,0c0,0-0.4-1.3-1.3-3.3c-0.1-0.3-0.3-0.6-0.4-0.8c-1.6-3.2-4.5-7.6-9.1-10.8"/>
			<path fill="#FBC878" stroke="#008CCE" stroke-width="4" stroke-linecap="round" stroke-linejoin="round" d="M421.7,109.7h-9.1
				h-9.1c-1.6,0-3,0.9-3,2l1.7,12.5c0,1.1,1.3,2,3,2c0,0,3.1-2.1,7.3-2.1c4.2,0,7.3,2.1,7.3,2.1c1.6,0,3-0.9,3-2l1.7-12.5
				C424.6,110.6,423.3,109.7,421.7,109.7z"/>
		</g>
		<g>
			<circle fill="#8DE7FC" cx="412.6" cy="172.2" r="15.6"/>
			
				<circle fill="none" stroke="#008CCE" stroke-width="4.2404" stroke-linecap="round" stroke-linejoin="round" cx="412.6" cy="172.2" r="15.6"/>
			<g>
				<path fill="#008CCE" d="M406.7,180.8v-2.1c1.4-0.6,2.9-2,2.9-3.8c0-0.4,0-0.7-0.1-1H407v-2.7h2.1c-0.1-0.6-0.2-1.4-0.2-2.1
					c0-3.3,2.4-5.4,5.8-5.4c1.4,0,2.5,0.3,3.1,0.6l-0.6,3c-0.5-0.3-1.2-0.5-2.2-0.5c-1.8,0-2.4,1.2-2.4,2.4c0,0.7,0.1,1.3,0.2,1.9
					h3.5v2.7h-3.2c0,0.6,0,1.2-0.2,1.8c-0.2,0.6-0.6,1.3-1.3,1.8v0.1h6.9v3.2H406.7z"/>
			</g>
		</g>
	</g>
	<g>
		
			<line fill="none" stroke="#8DE7FC" stroke-width="4.2404" stroke-linecap="round" stroke-linejoin="round" x1="384.8" y1="135.7" x2="380.5" y2="130.5"/>
		
			<line fill="none" stroke="#8DE7FC" stroke-width="4.2404" stroke-linecap="round" stroke-linejoin="round" x1="377.2" y1="144.8" x2="371.4" y2="141.4"/>
		
			<line fill="none" stroke="#8DE7FC" stroke-width="4.2404" stroke-linecap="round" stroke-linejoin="round" x1="373.2" y1="155.9" x2="366.6" y2="154.7"/>
		
			<line fill="none" stroke="#8DE7FC" stroke-width="4.2404" stroke-linecap="round" stroke-linejoin="round" x1="373.2" y1="167.7" x2="366.6" y2="168.9"/>
		
			<line fill="none" stroke="#8DE7FC" stroke-width="4.2404" stroke-linecap="round" stroke-linejoin="round" x1="377.3" y1="178.9" x2="371.5" y2="182.2"/>
		
			<line fill="none" stroke="#8DE7FC" stroke-width="4.2404" stroke-linecap="round" stroke-linejoin="round" x1="448" y1="178.8" x2="453.8" y2="182.1"/>
		
			<line fill="none" stroke="#8DE7FC" stroke-width="4.2404" stroke-linecap="round" stroke-linejoin="round" x1="452" y1="167.6" x2="458.6" y2="168.8"/>
		
			<line fill="none" stroke="#8DE7FC" stroke-width="4.2404" stroke-linecap="round" stroke-linejoin="round" x1="452" y1="155.8" x2="458.6" y2="154.6"/>
		
			<line fill="none" stroke="#8DE7FC" stroke-width="4.2404" stroke-linecap="round" stroke-linejoin="round" x1="447.9" y1="144.6" x2="453.7" y2="141.3"/>
		
			<line fill="none" stroke="#8DE7FC" stroke-width="4.2404" stroke-linecap="round" stroke-linejoin="round" x1="440.3" y1="135.6" x2="444.6" y2="130.4"/>
	</g>
</g>
<g>
	<g>
		<g>
			<path fill="#FEA491" stroke="#008CCE" stroke-width="4" d="M309.7,216.9c-7.6,0-13.8-6.2-13.8-13.8v-6.8h-50.6l0,6.8
				c0,7.6-6.2,13.8-13.8,13.8h-1.8c-7.6,0-13.8-6.2-13.8-13.8v-15.8l-1.2-0.8c-10.8-6.9-17.9-14.4-22.3-23.7l-0.7-1.5l-13.7-0.1
				c-4.2,0-7.5-3.4-7.5-7.5v-17.1c0-4.2,3.5-9.4,7.5-9.4l8.9,0.1l0.3-2.3c1.9-13.6,8.5-26.2,18.7-35.4l1.6-1.4l-1.1-1.9
				c-1.7-3.1-7-13.3-2.2-16.4c2.3-1.5,4.9-2.2,7.8-2.2c7.8,0,15.6,5.2,18.5,7.4l1.1,0.8l1.9-0.6c1.9-0.6,5-1.7,9.2-2.7l4-1l59.3,2.3
				l3.8,1.4c32.9,12.3,44.6,39,44.6,59.9c0,5.4-0.7,10.9-2.1,16.1l-0.7,2.6l9.9,2.6c0.3,0.1,0.9,0.4,1.8,0.4c1.3,0,2.5-0.6,3.7-1.7
				l2-2.1c-0.6,0.9-1.2,1.7-1.8,2.3c-1.2,1.2-2.6,1.8-3.9,1.8c-0.6,0-1.2-0.1-1.7-0.3l-0.1-0.1l-9.9-2.6l-0.8,2.3
				c-4.6,12.4-13,22.8-24.2,30.1l-1.2,0.8v15.8c0,7.6-6.2,13.8-13.8,13.8H309.7z"/>
			<g>
				<path fill="none" stroke="#008CCE" stroke-width="3" stroke-linecap="round" stroke-linejoin="round" d="M245.2,196.2"/>
				<path fill="none" stroke="#008CCE" stroke-width="3" stroke-linecap="round" stroke-linejoin="round" d="M296.1,196.2"/>
				<circle fill="#008CCE" cx="206.6" cy="123.1" r="4.7"/>
				<path fill="none" stroke="#008CCE" stroke-width="3" stroke-linecap="round" stroke-linejoin="round" d="M377.6,143.8
					c-1.9,10.7-19.5,9-18.7-1.6c0.5-6.6,8.1-5.5,10.3-0.2c1.8,4.5-3.1,17.3-9.6,14.5l-8.3-2.2"/>
				<g>
					<g>
						<g id="XMLID_1_">
							<g>
								<path fill="#FFFFFF" stroke="#008CCE" stroke-width="4" stroke-miterlimit="10" d="M279.1,4.1c22.8,0.7,40.7,19.8,40,42.7
									c-0.7,22.8-19.8,40.7-42.7,40s-40.7-19.8-40-42.7C237.2,21.3,256.2,3.4,279.1,4.1z M307.7,46.4c0.5-16.6-12.5-30.4-29-30.9
									c-16.6-0.5-30.4,12.4-30.9,29c-0.5,16.6,12.5,30.4,29,30.9C293.3,75.9,307.2,62.9,307.7,46.4z"/>
								
									<ellipse transform="matrix(3.222949e-02 -0.9995 0.9995 3.222949e-02 223.3843 321.5476)" fill="#FBC878" stroke="#008CCE" stroke-width="4" stroke-miterlimit="10" cx="277.7" cy="45.4" rx="30" ry="30"/>
							</g>
							<g>
								
									<ellipse transform="matrix(3.223051e-02 -0.9995 0.9995 3.223051e-02 223.3879 321.5441)" fill="#FBC878" stroke="#008CCE" stroke-width="4" stroke-linecap="round" stroke-linejoin="round" cx="277.7" cy="45.4" rx="41.3" ry="41.3"/>
								<path fill="none" stroke="#008CCE" stroke-width="4" stroke-linecap="round" stroke-linejoin="round" d="M307.7,46.4
									c0.5-16.6-12.5-30.4-29-30.9c-16.6-0.5-30.4,12.4-30.9,29c-0.5,16.6,12.5,30.4,29,30.9C293.3,75.9,307.2,62.9,307.7,46.4z"
									/>
							</g>
						</g>
						<g>
							<path fill="#008CCE" d="M266.7,60.1l0.1-3.6c2.4-0.9,5.1-3.4,5.2-6.4c0-0.6,0-1.2-0.1-1.8l-4.4-0.1l0.1-4.6l3.6,0.1
								c-0.2-1.1-0.3-2.4-0.2-3.6c0.2-5.6,4.4-9.2,10.4-9c2.5,0.1,4.3,0.7,5.2,1.2l-1.3,5.1c-0.8-0.5-2.1-0.9-3.7-0.9
								c-3.2-0.1-4.2,1.9-4.3,4.1c0,1.2,0.1,2.2,0.3,3.4l6.1,0.2l-0.1,4.6l-5.5-0.2c0,1.1-0.1,2.1-0.5,3.1c-0.4,1.1-1.2,2.2-2.3,3.1
								l0,0.1l11.9,0.4l-0.2,5.5L266.7,60.1z"/>
						</g>
					</g>
				</g>
				<ellipse fill="#FEA491" cx="275.5" cy="90.8" rx="27.3" ry="9.9"/>
				<path fill="none" stroke="#008CCE" stroke-width="4" stroke-linecap="round" stroke-linejoin="round" d="M252.6,83.8
					c0,0,27.4-7.8,49,1.8"/>
			</g>
		</g>
	</g>
</g>
<g>
	<g>
		<ellipse transform="matrix(0.9732 -0.2301 0.2301 0.9732 -8.1255 111.4209)" fill="#59C9EE" cx="473.7" cy="90.6" rx="6" ry="6"/>
		<ellipse transform="matrix(0.9732 -0.2301 0.2301 0.9732 -8.1255 111.4209)" fill="none" cx="473.7" cy="90.6" rx="6" ry="6"/>
	</g>
	<g>
		
			<ellipse transform="matrix(0.9732 -0.2298 0.2298 0.9732 -5.6865 107.0866)" fill="#C7E8F2" cx="456.9" cy="78" rx="4.6" ry="4.6"/>
		<ellipse transform="matrix(0.9732 -0.2298 0.2298 0.9732 -5.6865 107.0866)" fill="none" cx="456.9" cy="78" rx="4.6" ry="4.6"/>
	</g>
	<g>
		
			<line fill="none" stroke="#008CCE" stroke-width="3" stroke-linecap="round" stroke-linejoin="round" x1="407.4" y1="79.7" x2="431" y2="79.7"/>
		
			<line fill="none" stroke="#008CCE" stroke-width="3" stroke-linecap="round" stroke-linejoin="round" x1="435.8" y1="79.7" x2="444.8" y2="79.7"/>
		
			<line fill="none" stroke="#008CCE" stroke-width="3" stroke-linecap="round" stroke-linejoin="round" x1="463.2" y1="91.6" x2="435" y2="91.6"/>
		
			<line fill="none" stroke="#008CCE" stroke-width="3" stroke-linecap="round" stroke-linejoin="round" x1="431" y1="91.6" x2="419.5" y2="91.6"/>
	</g>
</g>
<g>
	<g>
		<ellipse transform="matrix(0.2301 -0.9732 0.9732 0.2301 -37.6539 131.9255)" fill="#59C9EE" cx="64.5" cy="89.8" rx="6" ry="6"/>
		<ellipse transform="matrix(0.2301 -0.9732 0.9732 0.2301 -37.6539 131.9255)" fill="none" cx="64.5" cy="89.8" rx="6" ry="6"/>
	</g>
	<g>
		
			<ellipse transform="matrix(0.2298 -0.9732 0.9732 0.2298 -12.4116 138.6387)" fill="#C7E8F2" cx="81.4" cy="77.2" rx="4.6" ry="4.6"/>
		
			<ellipse transform="matrix(0.2298 -0.9732 0.9732 0.2298 -12.4116 138.6387)" fill="none" cx="81.4" cy="77.2" rx="4.6" ry="4.6"/>
	</g>
	<g>
		
			<line fill="none" stroke="#008CCE" stroke-width="3" stroke-linecap="round" stroke-linejoin="round" x1="130.9" y1="79" x2="107.3" y2="79"/>
		
			<line fill="none" stroke="#008CCE" stroke-width="3" stroke-linecap="round" stroke-linejoin="round" x1="102.5" y1="79" x2="93.4" y2="79"/>
		
			<line fill="none" stroke="#008CCE" stroke-width="3" stroke-linecap="round" stroke-linejoin="round" x1="75.1" y1="90.8" x2="103.3" y2="90.8"/>
		
			<line fill="none" stroke="#008CCE" stroke-width="3" stroke-linecap="round" stroke-linejoin="round" x1="107.3" y1="90.8" x2="118.8" y2="90.8"/>
	</g>
</g>
<line fill="none" stroke="#008CCE" stroke-width="3" stroke-linecap="round" stroke-linejoin="round" x1="216.4" y1="216.9" x2="187.5" y2="216.9"/>
<line fill="none" stroke="#008CCE" stroke-width="3" stroke-linecap="round" stroke-linejoin="round" x1="554.5" y1="216.9" x2="431.6" y2="216.9"/>
<line fill="none" stroke="#008CCE" stroke-width="3" stroke-linecap="round" stroke-linejoin="round" x1="358.6" y1="216.9" x2="227.3" y2="216.9"/>
<line fill="none" stroke="#008CCE" stroke-width="3" stroke-linecap="round" stroke-linejoin="round" x1="417.1" y1="216.9" x2="370.1" y2="216.9"/>
<line fill="none" stroke="#008CCE" stroke-width="3" stroke-linecap="round" stroke-linejoin="round" x1="121" y1="216.9" x2="1.3" y2="216.9"/>
<line fill="none" stroke="#008CCE" stroke-width="3" stroke-linecap="round" stroke-linejoin="round" x1="175.7" y1="216.9" x2="163.9" y2="216.9"/>
<line fill="none" stroke="#008CCE" stroke-width="3" stroke-linecap="round" stroke-linejoin="round" x1="155.9" y1="216.9" x2="133.1" y2="216.9"/>
<g>
	<path fill="#FBC878" d="M147.6,216.9C147.5,216.9,147.5,216.9,147.6,216.9l-0.1-7.4c0,0,0-0.1,0.1-0.1h6.6v-7.6c0,0,0-0.1,0.1-0.1
		h4.8v-7.7h-7.6c0,0-0.1,0-0.1-0.1v-7.3c0,0,0-0.1,0.1-0.1h7.6v-7.4h-7.6c0,0-0.1,0-0.1-0.1v-7.3c0,0,0-0.1,0.1-0.1h57.2
		c0,0,0.1,0,0.1,0.1v7.4h7.6c0,0,0.1,0,0.1,0.1v7.3c0,0,0,0.1-0.1,0.1h-7.6v7.4h7.6c0,0,0.1,0,0.1,0.1v7.3c0,0,0,0.1-0.1,0.1h-4.8
		v7.5c0,0,0,0.1-0.1,0.1h-6.6v7.6c0,0,0,0.1-0.1,0.1H147.6z"/>
	<rect x="151.4" y="172.6" fill="#FFFFFF" width="15.6" height="6.4"/>
	<rect x="201.2" y="179.9" fill="#FFFFFF" width="15.6" height="6.4"/>
	<rect x="201.2" y="194.6" fill="#FFFFFF" width="15.6" height="6.4"/>
	<rect x="196.4" y="202.6" fill="#FFFFFF" width="15.6" height="6.4"/>
	<g>
		<g>
			
				<rect x="151.4" y="171.9" fill="none" stroke="#008CCE" stroke-width="3" stroke-linecap="round" stroke-linejoin="round" width="57.2" height="7.3"/>
			
				<line fill="none" stroke="#008CCE" stroke-width="3" stroke-linecap="round" stroke-linejoin="round" x1="160.3" y1="172.5" x2="160.3" y2="177.6"/>
			
				<line fill="none" stroke="#008CCE" stroke-width="3" stroke-linecap="round" stroke-linejoin="round" x1="166.9" y1="172.5" x2="166.9" y2="177.6"/>
		</g>
		<g>
			
				<rect x="159.1" y="179.4" fill="none" stroke="#008CCE" stroke-width="3" stroke-linecap="round" stroke-linejoin="round" width="57.2" height="7.3"/>
			
				<line fill="none" stroke="#008CCE" stroke-width="3" stroke-linecap="round" stroke-linejoin="round" x1="207.4" y1="180" x2="207.4" y2="185.1"/>
			
				<line fill="none" stroke="#008CCE" stroke-width="3" stroke-linecap="round" stroke-linejoin="round" x1="200.9" y1="180" x2="200.9" y2="185.1"/>
		</g>
		<g>
			
				<rect x="151.4" y="186.8" fill="none" stroke="#008CCE" stroke-width="3" stroke-linecap="round" stroke-linejoin="round" width="57.2" height="7.3"/>
			
				<line fill="none" stroke="#008CCE" stroke-width="3" stroke-linecap="round" stroke-linejoin="round" x1="160.3" y1="187.3" x2="160.3" y2="192.5"/>
			
				<line fill="none" stroke="#008CCE" stroke-width="3" stroke-linecap="round" stroke-linejoin="round" x1="203.2" y1="187.3" x2="203.2" y2="192.5"/>
		</g>
		<g>
			
				<rect x="159.1" y="194.3" fill="none" stroke="#008CCE" stroke-width="3" stroke-linecap="round" stroke-linejoin="round" width="57.2" height="7.3"/>
			
				<line fill="none" stroke="#008CCE" stroke-width="3" stroke-linecap="round" stroke-linejoin="round" x1="207.4" y1="194.8" x2="207.4" y2="200"/>
			
				<line fill="none" stroke="#008CCE" stroke-width="3" stroke-linecap="round" stroke-linejoin="round" x1="200.9" y1="194.8" x2="200.9" y2="200"/>
		</g>
		<g>
			
				<rect x="154.2" y="201.9" fill="none" stroke="#008CCE" stroke-width="3" stroke-linecap="round" stroke-linejoin="round" width="57.2" height="7.3"/>
			
				<line fill="none" stroke="#008CCE" stroke-width="3" stroke-linecap="round" stroke-linejoin="round" x1="202.5" y1="202.4" x2="202.5" y2="207.6"/>
			
				<line fill="none" stroke="#008CCE" stroke-width="3" stroke-linecap="round" stroke-linejoin="round" x1="196" y1="202.4" x2="196" y2="207.6"/>
		</g>
		<g>
			
				<rect x="147.6" y="209.6" fill="none" stroke="#008CCE" stroke-width="3" stroke-linecap="round" stroke-linejoin="round" width="57.2" height="7.3"/>
			
				<line fill="none" stroke="#008CCE" stroke-width="3" stroke-linecap="round" stroke-linejoin="round" x1="195.8" y1="210.1" x2="195.8" y2="215.2"/>
		</g>
	</g>
</g>
<g>
	<path fill="#59C9EE" d="M380,69.4c1,4.3,6.7,6.3,10.5,1.8c2.4-5.4-1.9-9.6-6.3-8.6C381.2,63.3,379.3,66.4,380,69.4z"/>
	<path fill="none" d="M380,69.4c1,4.3,6.7,6.3,10.5,1.8c2.4-5.4-1.9-9.6-6.3-8.6C381.2,63.3,379.3,66.4,380,69.4z"/>
</g>
<g>
	<g>
		<g>
			<circle fill="#8DE7FC" cx="355.3" cy="195" r="7.8"/>
			<circle fill="#008CCE" cx="355.3" cy="195" r="3.2"/>
			<path fill="#FFFFFF" d="M315.6,184.9c3.8,0,7-3.1,7-6.9h65.5c0,3.8,3.1,7,7,7c0,0,0,0,0,0V205c0,0,0,0,0,0c-3.8,0-7,3.1-7,7
				c0,0,0,0,0,0h-65.6c0,0,0,0,0,0c0-3.8-3.1-7-7-7c0,0,0,0,0,0L315.6,184.9C315.6,184.9,315.6,184.9,315.6,184.9z M363.2,195
				c0-4.3-3.5-7.8-7.8-7.8c-4.3,0-7.8,3.5-7.8,7.8c0,4.3,3.5,7.8,7.8,7.8C359.7,202.8,363.2,199.3,363.2,195z"/>
			<path fill="#4FD1C1" d="M322.6,212C322.6,212,322.6,212,322.6,212l65.6,0c0,0,0,0,0,0c0-3.8,3.1-7,7-7c0,0,0,0,0,0v-20.2
				c0,0,0,0,0,0c-3.8,0-7-3.1-7-7h-65.5c0,3.8-3.1,6.9-7,6.9c0,0,0,0,0,0V205c0,0,0,0,0,0C319.4,205,322.6,208.2,322.6,212z
				 M400,207.1v6.6c0,1.8-1.5,3.3-3.3,3.3h-6.6h-69.7H314c-1.8,0-3.3-1.5-3.3-3.3v-6.6v-24.3v-6.6c0-1.8,1.5-3.3,3.3-3.3h6.6h69.6
				h6.6c1.8,0,3.3,1.5,3.3,3.3v6.6V207.1z"/>
		</g>
		<g>
			<path fill="none" stroke="#008CCE" stroke-width="3.2647" stroke-linecap="round" stroke-linejoin="round" d="M396.7,173h-6.6
				h-69.6H314c-1.8,0-3.3,1.5-3.3,3.3v6.6v24.3v6.6c0,1.8,1.5,3.3,3.3,3.3h6.6h69.7h6.6c1.8,0,3.3-1.5,3.3-3.3v-6.6v-24.3v-6.6
				C400,174.5,398.5,173,396.7,173z"/>
			
				<line fill="none" stroke="#008CCE" stroke-width="3.2647" stroke-linecap="round" stroke-linejoin="round" x1="395.1" y1="205" x2="395.1" y2="184.9"/>
			
				<line fill="none" stroke="#008CCE" stroke-width="3.2647" stroke-linecap="round" stroke-linejoin="round" x1="322.6" y1="212" x2="388.1" y2="212"/>
			
				<line fill="none" stroke="#008CCE" stroke-width="3.2647" stroke-linecap="round" stroke-linejoin="round" x1="315.6" y1="184.9" x2="315.6" y2="205"/>
			
				<line fill="none" stroke="#008CCE" stroke-width="3.2647" stroke-linecap="round" stroke-linejoin="round" x1="388.1" y1="177.9" x2="322.6" y2="177.9"/>
			<path fill="none" stroke="#008CCE" stroke-width="3.2647" stroke-linecap="round" stroke-linejoin="round" d="M315.6,184.9
				C315.6,184.9,315.6,184.9,315.6,184.9c3.8,0,7-3.1,7-6.9"/>
			<path fill="none" stroke="#008CCE" stroke-width="3.2647" stroke-linecap="round" stroke-linejoin="round" d="M388.1,177.9
				c0,3.8,3.1,7,7,7c0,0,0,0,0,0"/>
			<path fill="none" stroke="#008CCE" stroke-width="3.2647" stroke-linecap="round" stroke-linejoin="round" d="M322.6,212
				C322.6,212,322.6,212,322.6,212c0-3.9-3.1-7-7-7c0,0,0,0,0,0"/>
			<path fill="none" stroke="#008CCE" stroke-width="3.2647" stroke-linecap="round" stroke-linejoin="round" d="M395.1,205
				C395.1,205,395.1,205,395.1,205c-3.9,0-7,3.1-7,7c0,0,0,0,0,0"/>
			
				<circle fill="none" stroke="#008CCE" stroke-width="3.2647" stroke-linecap="round" stroke-linejoin="round" cx="355.3" cy="195" r="7.8"/>
		</g>
	</g>
	<g>
		<g>
			
				<line fill="none" stroke="#8DE7FC" stroke-width="3.2647" stroke-linecap="round" stroke-linejoin="round" x1="331.4" y1="192.4" x2="335.8" y2="196.8"/>
			
				<line fill="none" stroke="#8DE7FC" stroke-width="3.2647" stroke-linecap="round" stroke-linejoin="round" x1="335.8" y1="192.5" x2="331.5" y2="196.8"/>
		</g>
		<g>
			
				<line fill="none" stroke="#8DE7FC" stroke-width="3.2647" stroke-linecap="round" stroke-linejoin="round" x1="374.8" y1="192.4" x2="379.2" y2="196.8"/>
			
				<line fill="none" stroke="#8DE7FC" stroke-width="3.2647" stroke-linecap="round" stroke-linejoin="round" x1="379.2" y1="192.5" x2="374.9" y2="196.8"/>
		</g>
	</g>
</g>
</svg>
