<?xml version="1.0" encoding="utf-8"?>
<!-- Generator: Adobe Illustrator 21.1.0, SVG Export Plug-In . SVG Version: 6.00 Build 0)  -->
<svg version="1.1" id="Blue_title" xmlns="http://www.w3.org/2000/svg" xmlns:xlink="http://www.w3.org/1999/xlink" x="0px" y="0px"
	 viewBox="0 0 294 265.9" enable-background="new 0 0 294 265.9" xml:space="preserve">
<g>
	<path fill="#008CCE" d="M118.2,62.8C118.2,62.8,118.2,62.8,118.2,62.8l14.8,0l-10.5-10.5c-1.2-1.2-2.7-1.8-4.4-1.8
		c-1.7,0-3.2,0.6-4.4,1.8c-1.2,1.2-1.8,2.7-1.8,4.3c0,1.6,0.6,3.2,1.8,4.3C114.9,62.1,116.4,62.8,118.2,62.8L118.2,62.8L118.2,62.8z
		"/>
	<path fill="#008CCE" d="M177.5,62.8c1.7,0,3.2-0.6,4.4-1.8c1.2-1.2,1.8-2.7,1.8-4.3c0-1.6-0.6-3.2-1.8-4.3
		c-1.2-1.2-2.7-1.8-4.4-1.8c-1.7,0-3.2,0.6-4.4,1.8l-10.5,10.5h14.7C177.4,62.8,177.4,62.8,177.5,62.8L177.5,62.8L177.5,62.8z"/>
	<path fill="#008CCE" d="M115.6,114c-1.4,0-2.8-0.5-3.9-1.4c-2.6-2.2-2.9-6-0.8-8.6L134.9,75H90.9h-6.1h-6.1v61.3
		c0,3.4,2.7,6.1,6.1,6.1h56.9v-6.1v-6.1V86.1l-21.4,25.6C119.1,113.2,117.3,114,115.6,114L115.6,114z"/>
	<path fill="#008CCE" d="M210.8,3.5h-56.9v6.1v6.1v38.4l10.6-10.5c3.5-3.5,8.1-5.4,13-5.4c4.9,0,9.5,1.9,13,5.4
		c3.5,3.5,5.4,8.1,5.4,13c0,2.1-0.4,4.2-1,6.1h9.8h6.1h6.1V9.7C217,6.3,214.2,3.5,210.8,3.5L210.8,3.5z"/>
	<path fill="#008CCE" d="M204.7,75h-44.1l24.1,28.9c2.2,2.6,1.8,6.5-0.8,8.6c-1.1,1-2.5,1.4-3.9,1.4c-1.8,0-3.5-0.8-4.7-2.2
		l-21.4-25.6v44.1v6.1v6.1h56.9c3.4,0,6.1-2.7,6.1-6.1V75h-6.1H204.7L204.7,75z"/>
	<path fill="#008CCE" d="M78.6,9.7v53.1h6.1h6.1h9.8c-0.7-1.9-1-4-1-6.1c0-4.9,1.9-9.5,5.4-13c3.5-3.5,8.1-5.4,13-5.4
		c4.9,0,9.5,1.9,13,5.4l10.6,10.5V15.8V9.7V3.5H84.7C81.4,3.5,78.6,6.3,78.6,9.7L78.6,9.7z"/>
</g>
<g>
	<g>
		<polygon fill="#008CCE" points="6.1,215.9 5.6,266.6 84.1,266.8 84.5,216.1 		"/>
		<g>
			<g id="XMLID_1_">
				<g>
					
						<rect x="39.2" y="173.1" transform="matrix(2.827079e-03 -1 1 2.827079e-03 -162.1753 252.7977)" fill="#FFFFFF" width="13" height="69.2"/>
					<path fill="#FFFFFF" d="M89.8,61.4c5.2-15-6.8-21-6.9-21c-0.6-0.3-1.3-0.3-1.9-0.1c-0.6,0.3-1.1,0.8-1.3,1.4l-17.6,38l-1.4,4.2
						l-29.2,90.2l-0.1,26.3l39.1,0.1l0-16.8l7.2-6.7c0.1-0.1,0.2-0.1,0.3-0.2l14.9-15.5c0.3-0.2,0.4-0.6,0.4-1l0-10l0-4.4l0.1-26.8
						c0-0.7-0.3-1.3-0.8-1.7c-0.5-0.4-1.1-0.6-1.8-0.6c-0.1,0-13.3,1.7-13.4,17.6l0,0l0.1-30.2l0-3.1l0.6-6.1L89.8,61.4z"/>
					<path fill="#FFFFFF" d="M27.5,228.9c0-2.6-2.1-4.7-4.7-4.7c-2.6,0-4.7,2.1-4.7,4.7c0,2.6,2.1,4.7,4.7,4.7
						C25.3,233.6,27.4,231.5,27.5,228.9z"/>
				</g>
				<g>
					<path fill="none" stroke="#008CCE" stroke-width="5.7945" stroke-linecap="round" stroke-linejoin="round" d="M77.4,148.1
						l0-13.6c0-15.9,13.2-17.6,13.4-17.6c0.7-0.1,1.3,0.1,1.8,0.6c0.5,0.4,0.8,1.1,0.8,1.7l-0.1,26.8l0,4.4l0,10
						c0,0.4-0.2,0.7-0.4,1L78,176.9c-0.1,0.1-0.2,0.1-0.3,0.2l-7.2,6.7l0,16.8l-39.1-0.1l0.1-26.3l29.2-90.2l1.4-4.2l17.6-38
						c0.2-0.6,0.7-1.1,1.3-1.4c0.6-0.3,1.3-0.2,1.9,0.1c0.1,0.1,12,6,6.9,21L78.1,95.1l-0.6,6.1l0,3.1l-0.1,30.2l0,10.1"/>
					
						<rect x="39.2" y="173.1" transform="matrix(2.827079e-03 -1 1 2.827079e-03 -162.1753 252.7977)" fill="none" stroke="#008CCE" stroke-width="5.7945" stroke-linecap="round" stroke-linejoin="round" width="13" height="69.2"/>
					<polyline fill="none" stroke="#008CCE" stroke-width="5.7945" stroke-linejoin="round" points="84.5,266.8 85,215 6.3,214.7 
						5.9,266.6 					"/>
				</g>
			</g>
		</g>
	</g>
</g>
<g>
	<g>
		<polygon fill="#008CCE" points="288,215.9 288.4,266.6 209.9,266.8 209.5,216.1 		"/>
		<g>
			<g id="XMLID_2_">
				<g>
					
						<rect x="213.8" y="201.2" transform="matrix(1 -2.827079e-03 2.827079e-03 1 -0.5862 0.703)" fill="#FFFFFF" width="69.2" height="13"/>
					<path fill="#FFFFFF" d="M204.3,61.4c-5.2-15,6.8-21,6.9-21c0.6-0.3,1.3-0.3,1.9-0.1c0.6,0.3,1.1,0.8,1.3,1.4l17.6,38l1.4,4.2
						l29.2,90.2l0.1,26.3l-39.1,0.1l0-16.8l-7.2-6.7c-0.1-0.1-0.2-0.1-0.3-0.2l-14.9-15.5c-0.3-0.2-0.4-0.6-0.4-1l0-10l0-4.4
						l-0.1-26.8c0-0.7,0.3-1.3,0.8-1.7c0.5-0.4,1.1-0.6,1.8-0.6c0.1,0,13.3,1.7,13.4,17.6l0,0l-0.1-30.2l0-3.1l-0.6-6.1L204.3,61.4z
						"/>
					<path fill="#FFFFFF" d="M266.6,228.9c0-2.6,2.1-4.7,4.7-4.7c2.6,0,4.7,2.1,4.7,4.7c0,2.6-2.1,4.7-4.7,4.7
						C268.7,233.6,266.6,231.5,266.6,228.9z"/>
				</g>
				<g>
					<path fill="none" stroke="#008CCE" stroke-width="5.7945" stroke-linecap="round" stroke-linejoin="round" d="M216.6,148.1
						l0-13.6c0-15.9-13.2-17.6-13.4-17.6c-0.7-0.1-1.3,0.1-1.8,0.6c-0.5,0.4-0.8,1.1-0.8,1.7l0.1,26.8l0,4.4l0,10
						c0,0.4,0.2,0.7,0.4,1l14.9,15.5c0.1,0.1,0.2,0.1,0.3,0.2l7.2,6.7l0,16.8l39.1-0.1l-0.1-26.3l-29.2-90.2l-1.4-4.2l-17.6-38
						c-0.2-0.6-0.7-1.1-1.3-1.4c-0.6-0.3-1.3-0.2-1.9,0.1c-0.1,0.1-12,6-6.9,21l11.6,33.7l0.6,6.1l0,3.1l0.1,30.2l0,10.1"/>
					
						<rect x="213.8" y="201.2" transform="matrix(1 -2.827079e-03 2.827079e-03 1 -0.5862 0.703)" fill="none" stroke="#008CCE" stroke-width="5.7945" stroke-linecap="round" stroke-linejoin="round" width="69.2" height="13"/>
					<polyline fill="none" stroke="#008CCE" stroke-width="5.7945" stroke-linejoin="round" points="209.5,266.8 209.1,215 
						287.7,214.7 288.2,266.6 					"/>
				</g>
			</g>
		</g>
	</g>
</g>
</svg>
