<?xml version="1.0" encoding="utf-8"?>
<!-- Generator: Adobe Illustrator 21.1.0, SVG Export Plug-In . SVG Version: 6.00 Build 0)  -->
<svg version="1.1" id="Layer_1" xmlns="http://www.w3.org/2000/svg" xmlns:xlink="http://www.w3.org/1999/xlink" x="0px" y="0px"
	 viewBox="0 0 487 449" enable-background="new 0 0 487 449" xml:space="preserve" role="img" aria-label="[title]">
	 <title>RS Bookkeeping</title>
  <g>
	<linearGradient id="SVGID_1_" gradientUnits="userSpaceOnUse" x1="306.9921" y1="120.0489" x2="306.9921" y2="453.0169">
		<stop  offset="0" style="stop-color:#CFCFCF"/>
		<stop  offset="1" style="stop-color:#636363"/>
	</linearGradient>
	<path fill="url(#SVGID_1_)" d="M248.6,121.8C261.3,183.9,486.8,175,486.8,316c0,82-74.9,133.2-172.7,133.2
		c-123.4,0-186.8-77.7-186.8-77.7l52.9-70.9c0,0,57.3,64,133.9,64c34.4,0,60.8-13.7,60.8-42.7c0-44.3-122.8-56.2-191.7-112
		C195.2,165.2,221.4,138,248.6,121.8"/>
	<linearGradient id="SVGID_2_" gradientUnits="userSpaceOnUse" x1="235.0641" y1="7.4254" x2="235.0641" y2="449.1869">
		<stop  offset="0" style="stop-color:#008CCE"/>
		<stop  offset="1" style="stop-color:#074F84"/>
	</linearGradient>
	<path fill="url(#SVGID_2_)" d="M118.2,378.9l-5.8-7.1l5.5-7.3l44.2-59.2v-29.8c0-6.7,0.3-13.2,0.7-19.6c0-1.2,0-2.2,0-3.4
		c0.1-20.3,3.3-40.9,7.4-56.7c20.8-75.5,80.9-99.7,116.7-107.5c9.2-2.5,19.7-3.9,31.5-3.9c24.1,0,55.1,10.3,55.1,31v21.5h96.4V91.3
		C469.9,19.8,375.2,0,315.8,0c-68.9,0-130.9,23.1-157.2,72.3v-8.6c0-37-19.8-53.4-58.5-53.4H0.2v93h34.4c12,0,18.9,6,18.9,18.9
		v327.1h108.5v-33.1C133.5,397.5,118.8,379.7,118.2,378.9z"/>
</g>
</svg>
